<svg id="Layer_1" data-name="Layer 1" xmlns="http://www.w3.org/2000/svg" viewBox="0 0 360 128.31"><title>Enigma_Logo_Black_RGB</title><path d="M330.49,290.6v35.74h-11V292.47c0-7.85-3.28-14.18-13.12-14.18-8.67,0-13.12,6.91-13.12,15.47v32.57h-11V270H293v8.08c4.1-7,10.78-9.72,17.34-9.72C323.81,268.34,330.49,278.06,330.49,290.6Zm166.84-22.26c-7.15,0-14.41,2.58-18.86,10.66-3-7.26-9.84-10.66-16.87-10.66-6.56,0-13.59,2.93-17.11,9.14V270H433.94v56.36h10.9v-34c0-8.44,5.27-14.29,13.12-14.29,8.44,0,12,5.62,12,12.89v35.38h11v-34.1c0-8.08,5.27-14.18,13-14.18,8.32,0,12,5.51,12,12.89v35.38h10.9V289.78C516.78,275,507.17,268.34,497.33,268.34ZM576,326.18H565.23a41.16,41.16,0,0,1-.59-7.61c-2.46,4-8.08,9.36-18.14,9.36-11.47,0-18.84-8-18.84-16.85,0-10.06,7.37-15.68,17.09-17.09L560,291.77c3.39-.47,4.33-2.22,4.33-4.21,0-5.5-3.63-10.06-12.17-10.06-7.72,0-12.06,4.8-12.76,11.35l-10.53-2.46c1.17-10.77,10.88-18.26,23.06-18.26,16.85,0,23.41,9.6,23.41,20.6v28.21A52.88,52.88,0,0,0,576,326.18ZM564.3,299.5l-17.2,2.57c-4.68.7-8.19,3.39-8.19,8.43,0,4.21,3.51,8.19,9.13,8.19,9,0,16.27-4.33,16.27-16.62ZM346.06,326.33h10.89V270H346.06Zm5.39-84.49a6.82,6.82,0,1,0,6.87,6.87A6.79,6.79,0,0,0,351.46,241.84Zm51.63,82.52c7.16,6.19,14.24,12.76,14.24,23.61,0,12.86-9.28,22.19-22.05,22.19s-21.92-9.33-21.92-22.19c0-6.33,2.52-11.33,5.94-15.51l7.46,6.43a14.21,14.21,0,0,0-3.56,9.08c0,7.74,5.16,12.35,12.08,12.35s12.21-4.61,12.21-12.35c0-6.92-5.16-11.26-12.08-17.24l0,0h0l-6.79-5.86-.74-.64c-9-7.81-18.14-16-18.14-29.43a26.69,26.69,0,0,1,7.53-19.11,25.84,25.84,0,0,1,18.46-7.4c15,0,25.83,11.15,25.83,26.51C421.51,308.69,410.72,318.05,403.08,324.36Zm7.8-29.56c0-9.73-6.49-15.87-15.19-15.87s-15.36,6.14-15.36,15.87c0,8.7,6.48,14.51,15.19,22C404.22,309.64,410.88,303.33,410.88,294.8ZM270.1,297.68a24.89,24.89,0,0,1-.23,3.52H227.38c.23,10.09,7.51,17.13,17,17.13,8.4,0,12.94-4.25,15.26-9.85l9.53,3.29c-3.58,9.23-12.34,16.29-24.79,16.29-15.14,0-28.4-11-28.4-30.16,0-17.72,12.79-29.81,27-29.81C260.36,268.1,270.1,280.07,270.1,297.68Zm-11.5-5.4c-.23-8.1-5.52-14.43-15.49-14.43a15.18,15.18,0,0,0-15.37,14.43Z" transform="translate(-216 -241.84)"/></svg>